HIERARCHY
ROOT Hips
{
	OFFSET 0.000000 100.481300 0.000000
	CHANNELS 6 Xposition Yposition Zposition Xrotation Yrotation Zrotation
	JOINT Spine
	{
		OFFSET -0.279200 12.230698 -2.892100
		CHANNELS 3 Xrotation Yrotation Zrotation
		JOINT Spine1
		{
			OFFSET -0.325700 14.269203 -3.374200
			CHANNELS 3 Xrotation Yrotation Zrotation
			JOINT Spine2
			{
				OFFSET -0.372300 16.307602 -0.352600
				CHANNELS 3 Xrotation Yrotation Zrotation
				JOINT Neck
				{
					OFFSET -0.418800 17.814194 8.416900
					CHANNELS 3 Xrotation Yrotation Zrotation
					JOINT Head
					{
						OFFSET 0.000000 7.031097 3.806800
						CHANNELS 3 Xrotation Yrotation Zrotation
						JOINT HeadTop_End
						{
							OFFSET 0.000000 24.646606 12.978600
							CHANNELS 3 Xrotation Yrotation Zrotation
							End Site
							{
								OFFSET 0.000000 27.854965 0.000000
							}
						}
					}
				}
				JOINT LeftShoulder
				{
					OFFSET 16.952999 14.495407 -7.737500
					CHANNELS 3 Xrotation Yrotation Zrotation
					JOINT LeftArm
					{
						OFFSET 9.308998 -2.777710 0.208600
						CHANNELS 3 Xrotation Yrotation Zrotation
						JOINT LeftForeArm
						{
							OFFSET 29.972298 0.000000 0.000000
							CHANNELS 3 Xrotation Yrotation Zrotation
							JOINT LeftHand
							{
								OFFSET 26.026505 0.000000 0.000000
								CHANNELS 3 Xrotation Yrotation Zrotation
								JOINT LeftHandThumb1
								{
									OFFSET 12.240501 -7.147949 9.207150
									CHANNELS 3 Xrotation Yrotation Zrotation
									JOINT LeftHandThumb2
									{
										OFFSET 4.138618 -2.389435 2.389433
										CHANNELS 3 Xrotation Yrotation Zrotation
										JOINT LeftHandThumb3
										{
											OFFSET 2.726913 -1.574387 1.574386
											CHANNELS 3 Xrotation Yrotation Zrotation
											JOINT LeftHandThumb4
											{
												OFFSET 3.941010 -2.275345 2.275342
												CHANNELS 3 Xrotation Yrotation Zrotation
												End Site
												{
													OFFSET -0.005798 5.087799 0.009903
												}
											}
										}
									}
								}
								JOINT LeftHandIndex1
								{
									OFFSET 24.424698 -1.985611 5.953459
									CHANNELS 3 Xrotation Yrotation Zrotation
									JOINT LeftHandIndex2
									{
										OFFSET 6.426697 0.000000 0.000000
										CHANNELS 3 Xrotation Yrotation Zrotation
										JOINT LeftHandIndex3
										{
											OFFSET 5.337898 0.000000 0.000000
											CHANNELS 3 Xrotation Yrotation Zrotation
											JOINT LeftHandIndex4
											{
												OFFSET 4.409401 0.000000 0.000000
												CHANNELS 3 Xrotation Yrotation Zrotation
												End Site
												{
													OFFSET 0.000000 4.409363 0.014373
												}
											}
										}
									}
								}
								JOINT LeftHandMiddle1
								{
									OFFSET 23.810104 0.000000 0.000000
									CHANNELS 3 Xrotation Yrotation Zrotation
									JOINT LeftHandMiddle2
									{
										OFFSET 7.176498 0.000000 0.000000
										CHANNELS 3 Xrotation Yrotation Zrotation
										JOINT LeftHandMiddle3
										{
											OFFSET 6.774902 0.000000 0.000000
											CHANNELS 3 Xrotation Yrotation Zrotation
											JOINT LeftHandMiddle4
											{
												OFFSET 5.403328 0.000000 0.000000
												CHANNELS 3 Xrotation Yrotation Zrotation
												End Site
												{
													OFFSET -0.027702 5.403244 0.017414
												}
											}
										}
									}
								}
								JOINT LeftHandRing1
								{
									OFFSET 22.908401 -0.839279 -6.020567
									CHANNELS 3 Xrotation Yrotation Zrotation
									JOINT LeftHandRing2
									{
										OFFSET 6.337502 0.000000 0.000000
										CHANNELS 3 Xrotation Yrotation Zrotation
										JOINT LeftHandRing3
										{
											OFFSET 5.779297 0.000000 0.000000
											CHANNELS 3 Xrotation Yrotation Zrotation
											JOINT LeftHandRing4
											{
												OFFSET 4.965698 0.000000 0.000000
												CHANNELS 3 Xrotation Yrotation Zrotation
												End Site
												{
													OFFSET 0.000000 4.965668 0.016186
												}
											}
										}
									}
								}
								JOINT LeftHandPinky1
								{
									OFFSET 20.037003 -1.530319 -10.950146
									CHANNELS 3 Xrotation Yrotation Zrotation
									JOINT LeftHandPinky2
									{
										OFFSET 5.254700 0.000000 0.000000
										CHANNELS 3 Xrotation Yrotation Zrotation
										JOINT LeftHandPinky3
										{
											OFFSET 4.810204 0.000000 0.000000
											CHANNELS 3 Xrotation Yrotation Zrotation
											JOINT LeftHandPinky4
											{
												OFFSET 3.647202 0.000000 0.000000
												CHANNELS 3 Xrotation Yrotation Zrotation
												End Site
												{
													OFFSET 0.000000 3.647186 0.011889
												}
											}
										}
									}
								}
							}
						}
					}
				}
				JOINT RightShoulder
				{
					OFFSET -15.141001 14.495407 -7.737500
					CHANNELS 3 Xrotation Yrotation Zrotation
					JOINT RightArm
					{
						OFFSET -9.308998 -2.777710 0.208500
						CHANNELS 3 Xrotation Yrotation Zrotation
						JOINT RightForeArm
						{
							OFFSET -29.972300 0.000000 0.000000
							CHANNELS 3 Xrotation Yrotation Zrotation
							JOINT RightHand
							{
								OFFSET -26.026505 0.000000 0.000000
								CHANNELS 3 Xrotation Yrotation Zrotation
								JOINT RightHandThumb1
								{
									OFFSET -12.240601 -7.148026 9.207092
									CHANNELS 3 Xrotation Yrotation Zrotation
									JOINT RightHandThumb2
									{
										OFFSET -4.138618 -2.389435 2.389433
										CHANNELS 3 Xrotation Yrotation Zrotation
										JOINT RightHandThumb3
										{
											OFFSET -2.726974 -1.574417 1.574421
											CHANNELS 3 Xrotation Yrotation Zrotation
											JOINT RightHandThumb4
											{
												OFFSET -3.941010 -2.275345 2.275343
												CHANNELS 3 Xrotation Yrotation Zrotation
												End Site
												{
													OFFSET 0.005814 5.087799 0.009927
												}
											}
										}
									}
								}
								JOINT RightHandIndex1
								{
									OFFSET -24.424698 -1.985657 5.953444
									CHANNELS 3 Xrotation Yrotation Zrotation
									JOINT RightHandIndex2
									{
										OFFSET -6.426697 0.000000 0.000000
										CHANNELS 3 Xrotation Yrotation Zrotation
										JOINT RightHandIndex3
										{
											OFFSET -5.337898 0.000000 0.000000
											CHANNELS 3 Xrotation Yrotation Zrotation
											JOINT RightHandIndex4
											{
												OFFSET -4.409401 0.000000 0.000000
												CHANNELS 3 Xrotation Yrotation Zrotation
												End Site
												{
													OFFSET 0.000000 4.409363 0.014408
												}
											}
										}
									}
								}
								JOINT RightHandMiddle1
								{
									OFFSET -23.810097 0.000000 0.000000
									CHANNELS 3 Xrotation Yrotation Zrotation
									JOINT RightHandMiddle2
									{
										OFFSET -7.176498 0.000000 0.000000
										CHANNELS 3 Xrotation Yrotation Zrotation
										JOINT RightHandMiddle3
										{
											OFFSET -6.774902 0.000000 0.000000
											CHANNELS 3 Xrotation Yrotation Zrotation
											JOINT RightHandMiddle4
											{
												OFFSET -5.403328 0.000000 0.000000
												CHANNELS 3 Xrotation Yrotation Zrotation
												End Site
												{
													OFFSET 0.027702 5.403244 0.017457
												}
											}
										}
									}
								}
								JOINT RightHandRing1
								{
									OFFSET -22.908302 -0.839325 -6.020576
									CHANNELS 3 Xrotation Yrotation Zrotation
									JOINT RightHandRing2
									{
										OFFSET -6.337502 0.000000 0.000000
										CHANNELS 3 Xrotation Yrotation Zrotation
										JOINT RightHandRing3
										{
											OFFSET -5.779297 0.000000 0.000000
											CHANNELS 3 Xrotation Yrotation Zrotation
											JOINT RightHandRing4
											{
												OFFSET -4.965698 0.000000 0.000000
												CHANNELS 3 Xrotation Yrotation Zrotation
												End Site
												{
													OFFSET 0.000000 4.965668 0.016226
												}
											}
										}
									}
								}
								JOINT RightHandPinky1
								{
									OFFSET -20.037003 -1.530334 -10.950259
									CHANNELS 3 Xrotation Yrotation Zrotation
									JOINT RightHandPinky2
									{
										OFFSET -5.254700 0.000000 0.000000
										CHANNELS 3 Xrotation Yrotation Zrotation
										JOINT RightHandPinky3
										{
											OFFSET -4.810204 0.000000 0.000000
											CHANNELS 3 Xrotation Yrotation Zrotation
											JOINT RightHandPinky4
											{
												OFFSET -3.647202 0.000000 0.000000
												CHANNELS 3 Xrotation Yrotation Zrotation
												End Site
												{
													OFFSET 0.000000 3.647186 0.011917
												}
											}
										}
									}
								}
							}
						}
					}
				}
			}
		}
	}
	JOINT LeftUpLeg
	{
		OFFSET 15.427100 -6.655098 0.678600
		CHANNELS 3 Xrotation Yrotation Zrotation
		JOINT LeftLeg
		{
			OFFSET 4.081073 -39.591068 13.024000
			CHANNELS 3 Xrotation Yrotation Zrotation
			JOINT LeftFoot
			{
				OFFSET -4.081074 -37.707932 -15.979700
				CHANNELS 3 Xrotation Yrotation Zrotation
				JOINT LeftToeBase
				{
					OFFSET 5.346399 -15.068900 20.645000
					CHANNELS 3 Xrotation Yrotation Zrotation
					JOINT LeftToe_End
					{
						OFFSET 2.754700 0.931300 11.300900
						CHANNELS 3 Xrotation Yrotation Zrotation
						End Site
						{
							OFFSET 0.000000 11.669021 0.000000
						}
					}
				}
			}
		}
	}
	JOINT RightUpLeg
	{
		OFFSET -15.569500 -6.655098 0.678600
		CHANNELS 3 Xrotation Yrotation Zrotation
		JOINT RightLeg
		{
			OFFSET -4.081825 -39.591045 13.023800
			CHANNELS 3 Xrotation Yrotation Zrotation
			JOINT RightFoot
			{
				OFFSET 4.081824 -37.707954 -15.979600
				CHANNELS 3 Xrotation Yrotation Zrotation
				JOINT RightToeBase
				{
					OFFSET -5.346400 -15.068900 20.645000
					CHANNELS 3 Xrotation Yrotation Zrotation
					JOINT RightToe_End
					{
						OFFSET -2.754700 0.931300 11.300900
						CHANNELS 3 Xrotation Yrotation Zrotation
						End Site
						{
							OFFSET 0.000000 11.669021 0.000000
						}
					}
				}
			}
		}
	}
}
MOTION
Frames: 4
Frame Time: 0.033333
1.246019 76.942810 -22.207260 4.077897 4.368232 -4.390637 16.987693 1.621826 9.367893 1.503297 0.296431 -1.030777 1.509356 0.249832 -1.033801 0.049372 -1.059243 2.083949 -27.129595 -1.784084 -3.984061 -0.000000 0.000000 0.000000 0.603945 -2.091860 -12.753280 12.460876 -19.572855 -60.568273 -0.000009 -2.285463 -0.000003 5.383786 -1.154469 -2.697284 -0.596263 11.450968 1.976127 2.021747 7.911892 -0.507013 -1.269605 5.401867 2.690595 -0.000001 0.000001 -0.000004 -0.413600 -4.065498 -5.672095 0.013993 0.439501 -3.644361 0.000017 -0.014907 0.123569 0.000002 -0.000001 0.000000 0.333308 2.782087 -8.195245 0.104478 1.197394 -9.973949 0.023034 0.563939 -4.678326 -0.000003 -0.000001 0.000001 2.086741 10.140522 -12.054703 0.335746 2.127842 -17.931393 0.102704 1.187222 -9.888150 0.000004 -0.000000 -0.000002 7.620676 22.940650 -18.434599 0.727915 -0.990979 -26.840364 0.145095 1.408884 -11.759256 0.000001 0.000001 -0.000000 0.808558 0.662164 19.592083 -8.341329 51.017695 42.045313 -0.000003 3.567875 -0.000002 -14.079445 10.558987 2.010126 -1.849241 -3.581789 -6.586157 4.637207 -8.634127 -0.225409 10.168887 -43.930120 3.822102 -0.000004 0.000003 0.000003 0.125879 -1.319706 10.896547 0.125871 -1.319709 10.896538 0.125884 -1.319724 10.896541 0.000004 0.000001 -0.000000 0.189722 -1.616313 13.387908 0.203114 -1.671609 13.855129 0.138976 -1.385978 11.451224 0.000001 -0.000000 -0.000001 0.287569 -1.982710 16.503158 0.325069 -2.105098 17.554851 0.156248 -1.468641 12.144596 0.000002 -0.000001 -0.000000 0.457773 -2.485579 20.866851 0.457755 -2.485596 20.866834 0.125875 -1.319701 10.896554 0.000002 0.000002 0.000003 -25.795330 17.364632 -11.091210 115.783618 15.857046 18.234445 17.666937 -1.460351 -11.731581 -1.285103 -0.000003 -0.000001 0.000001 0.000000 -0.000001 -38.289409 -10.387950 2.398050 56.867868 0.767053 -1.546626 -20.141852 0.558955 -2.657334 -8.445794 -0.000000 0.000001 -0.000000 0.000000 0.000000 
0.747367 79.880112 -17.152435 4.675827 2.220351 -2.648503 18.187725 3.750116 7.638881 1.594000 0.476505 -1.021247 1.601962 0.433686 -1.026481 -0.175024 -1.001050 1.053989 -27.170306 -2.619837 -3.574059 -0.000000 0.000000 -0.000000 0.667376 -0.780125 -13.644257 13.359732 -16.146697 -57.877022 0.000011 -2.274996 -0.000007 3.175436 -1.003410 -2.833286 -0.383655 11.777305 1.869034 1.803061 7.331744 -0.606322 -1.407409 5.165839 2.720170 0.000000 -0.000003 0.000003 -0.215848 -3.141069 -3.891025 0.013868 0.437727 -3.629649 0.000552 -0.087074 0.721474 -0.000001 0.000000 0.000001 0.366381 3.696603 -6.113700 0.069184 0.975598 -8.111995 0.010856 0.387267 -3.210728 0.000000 -0.000003 0.000000 1.837307 11.308665 -9.155375 0.205753 1.673874 -14.013570 0.055376 0.873323 -7.256659 0.000000 -0.000003 -0.000000 6.394843 24.903221 -13.889570 0.431006 -1.664127 -20.748064 0.078405 1.038201 -8.636645 -0.000001 0.000003 0.000001 0.713828 1.083829 16.139822 -10.399948 55.959275 41.496466 -0.000001 3.950506 0.000010 -14.541264 18.149414 0.394884 -1.849243 -3.581786 -6.586155 4.637207 -8.634128 -0.225408 10.168888 -43.930120 3.822097 0.000000 -0.000002 0.000003 0.125876 -1.319707 10.896552 0.125875 -1.319709 10.896538 0.125881 -1.319726 10.896535 -0.000002 0.000001 -0.000001 0.189719 -1.616316 13.387911 0.203112 -1.671607 13.855127 0.138977 -1.385978 11.451219 0.000001 -0.000002 -0.000000 0.287570 -1.982711 16.503156 0.325070 -2.105100 17.554853 0.156253 -1.468644 12.144590 0.000001 -0.000002 -0.000000 0.457769 -2.485581 20.866855 0.457756 -2.485593 20.866836 0.125877 -1.319699 10.896554 -0.000003 0.000000 0.000001 -34.436250 9.384283 -4.826253 106.534804 6.282489 10.041187 16.367024 -2.088179 -7.294530 -2.554799 -0.000000 0.000001 -0.000000 0.000000 0.000000 -31.541025 -10.383957 3.293308 55.115044 1.230665 -2.126648 -21.348612 1.398679 -4.046559 -12.329316 -0.000001 -0.000000 -0.000000 -0.000000 0.000000 
0.219246 82.920509 -11.406781 5.633969 -0.698528 -0.351301 18.272365 5.654122 4.918681 1.959785 0.660623 -0.879994 1.967540 0.628850 -0.883131 -0.318994 -0.855275 -0.099155 -27.506299 -3.068952 -3.234657 -0.000000 0.000000 -0.000000 0.727985 0.152255 -14.271042 15.821756 -11.616002 -55.753267 0.000004 -2.267618 -0.000012 -0.988972 -1.139149 -2.441663 0.634066 13.087308 1.192165 1.821886 7.402761 -0.572247 -1.213179 5.478410 2.668026 -0.000001 -0.000003 0.000000 -0.229386 -2.677601 -4.647852 0.013814 0.436870 -3.622484 0.000883 -0.110910 0.919012 0.000000 -0.000001 -0.000000 0.445232 4.708866 -5.581315 0.040202 0.744541 -6.181918 0.003763 0.228069 -1.890298 -0.000001 0.000002 0.000001 1.753812 13.157873 -7.189332 0.093654 1.134089 -9.441337 0.020684 0.534432 -4.433131 0.000000 -0.000000 0.000000 5.473736 28.210776 -9.988278 0.163516 -2.541182 -13.154627 0.028471 0.626949 -5.202470 0.000000 -0.000001 0.000000 0.631369 1.523668 12.815107 -11.488871 60.839794 38.080111 0.000002 7.793823 -0.000014 -13.815962 23.459962 -1.341790 -1.849241 -3.581788 -6.586158 4.637205 -8.634129 -0.225406 10.168879 -43.930117 3.822102 -0.000002 -0.000001 -0.000000 0.125883 -1.319707 10.896546 0.125881 -1.319715 10.896541 0.125883 -1.319723 10.896535 -0.000001 -0.000000 -0.000001 0.189722 -1.616313 13.387909 0.203117 -1.671610 13.855126 0.138979 -1.385979 11.451225 -0.000002 -0.000002 -0.000001 0.287568 -1.982710 16.503158 0.325069 -2.105098 17.554850 0.156253 -1.468645 12.144589 0.000002 -0.000001 -0.000001 0.457768 -2.485581 20.866853 0.457755 -2.485593 20.866839 0.125877 -1.319702 10.896553 -0.000003 0.000000 -0.000001 -39.449107 7.289560 -1.110312 90.972485 4.052570 5.058197 13.751778 -2.147192 -3.881374 -6.184806 -0.000003 0.000000 0.000002 0.000000 -0.000000 -25.963238 -9.539129 2.630385 53.592352 2.023397 -2.420654 -19.185402 2.108679 -4.961245 -15.211562 -0.000001 0.000005 0.000000 0.000000 -0.000000 
-0.467926 86.204865 -5.916024 6.633278 -2.651344 2.395750 17.122975 6.556777 1.713253 2.520002 0.778287 -0.601809 2.525302 0.761733 -0.598978 -0.369986 -0.714058 -1.212051 -27.839665 -3.449313 -2.984232 -0.000000 0.000000 0.000000 0.742008 0.662278 -14.034271 19.666049 -6.213867 -54.497690 0.000004 -2.263175 -0.000000 -5.198589 -1.237966 -1.729845 1.977608 14.897433 0.441780 1.948361 7.758734 -0.490790 -0.946539 5.912342 2.602556 -0.000001 -0.000001 -0.000000 -0.331570 -2.594277 -6.559457 0.013808 0.436667 -3.620853 0.000590 -0.090717 0.751635 -0.000000 0.000002 0.000001 0.560016 5.450624 -6.009591 0.021805 0.548694 -4.551607 0.000988 0.116790 -0.967865 0.000000 0.000002 0.000000 1.762079 14.782852 -6.216254 0.029700 0.640050 -5.311571 0.004524 0.250148 -2.073358 -0.000000 -0.000002 -0.000001 4.736394 31.211290 -7.305237 0.019769 -3.391451 -6.011992 0.005464 0.275114 -2.280253 0.000001 -0.000001 0.000000 0.579410 1.786552 10.088992 -11.639469 63.490522 31.972727 0.000000 16.614889 -0.000002 -9.634428 24.618684 -4.350397 -1.849242 -3.581787 -6.586160 4.637209 -8.634128 -0.225415 10.168880 -43.930120 3.822100 -0.000002 -0.000000 -0.000004 0.125886 -1.319708 10.896549 0.125875 -1.319708 10.896541 0.125882 -1.319722 10.896537 0.000000 -0.000000 0.000000 0.189722 -1.616315 13.387912 0.203115 -1.671608 13.855128 0.138982 -1.385977 11.451224 -0.000001 -0.000002 -0.000001 0.287571 -1.982712 16.503159 0.325068 -2.105095 17.554853 0.156252 -1.468645 12.144591 0.000001 0.000000 -0.000000 0.457773 -2.485584 20.866853 0.457756 -2.485596 20.866834 0.125876 -1.319702 10.896555 0.000000 -0.000001 -0.000000 -41.854378 9.380397 -0.407066 69.400917 6.815845 2.940710 9.826288 -1.649942 -2.731117 -10.081810 -0.043554 0.563697 -0.000001 -0.000001 0.000000 -22.743867 -7.693494 0.750713 50.299026 2.751168 -2.635845 -15.232734 2.932448 -5.191896 -18.934587 0.021637 -0.269836 -0.000000 -0.000000 0.000000 
